<svg xmlns="http://www.w3.org/2000/svg" viewBox="0 0 512 512">
  <path
    fill="#fff"
    stroke="#000"
    stroke-width="16"
    stroke-linejoin="round"
    d="M67 180c5-11 14-16 25-12 21 9 43 11 54-4 10-13 10-32 24-43 19-16 52-19 77-19 31-1 76 0 91 22 9 13 8 26 18 37 11 13 27 16 41 7 12-8 22-18 40-11 18 7 29 24 27 43-2 17-16 27-25 39-10 14-9 34-12 51-5 30-17 62-31 90-14 27-32 38-58 49-32 13-73 10-106 0-42-13-78-34-108-61-20-18-22-44-28-68-5-20-17-36-21-56-4-19-8-48-8-64Z"
  />
  <path
    fill="#000"
    d="M160 214c13-16 31-17 40-8 9 9 7 24-4 35-11 12-19 15-29 12-17-5-18-23-7-39Zm162-10c10-9 26-7 39 2 14 10 11 25 2 32-10 8-25 2-35-5-12-8-17-20-6-29Zm-99 49c13-11 54-9 68 1 10 8 0 25-16 37-3 3-4 8-4 19 0 8 15 16 31 25 13 8 15 22 7 29-7 6-16 5-25-1l-29-19-20 17c-12 10-22 17-31 10-9-8-4-21 7-31 13-12 26-24 26-35v-14c-17-8-25-15-27-24-1-6 4-10 13-14Z"
  />
</svg>
