<svg width="362" height="446" viewBox="0 0 362 446" fill="none" xmlns="http://www.w3.org/2000/svg">
<path d="M183.514 339.067C184.233 336.213 187.107 335.142 189.982 335.677C193.126 336.213 200.762 342.1 203.907 347.898C204.895 349.683 205.973 353.875 203.547 355.927C201.391 357.8 198.247 357.8 196.271 355.927C196.271 355.927 194.294 353.697 193.126 352.18C192.138 350.931 189.084 348.077 187.467 346.471C186.119 345.222 182.526 343.171 183.514 339.156V339.067ZM146.951 337.997C148.298 336.391 151.353 334.607 153.958 335.856C156.563 337.194 157.551 340.048 156.294 342.903C155.575 344.509 154.677 345.401 153.778 346.65C152.431 348.701 150.814 350.575 150.364 351.913C149.286 354.678 148.029 357.176 145.064 357.176C142.1 357.176 139.764 354.856 139.764 351.913C139.764 347.631 141.381 345.936 143.447 342.635C144.615 340.851 145.513 339.781 146.951 338.086V337.997ZM242.806 318.639C245.68 318.907 247.837 321.494 247.567 324.348C247.387 325.865 246.848 327.025 246.309 327.827C245.231 329.433 242.536 332.466 241.009 333.715C239.033 335.321 234.81 338.086 232.385 338.621C230.588 338.978 226.905 338.978 225.557 335.677C224.21 332.377 226.995 329.968 228.522 328.898C230.588 327.381 235.08 324.705 236.877 322.921C238.134 321.672 240.2 318.461 242.806 318.728V318.639ZM133.026 304.991C135.452 304.188 138.596 304.634 140.033 307.132C141.381 309.54 140.572 312.93 138.237 314.179C136.26 315.249 132.038 316.766 130.151 317.926C128.984 318.55 127.007 320.245 125.929 321.048C124.492 322.207 121.168 323.992 118.742 322.475C116.317 320.959 115.598 317.926 116.945 315.428C118.652 312.484 123.054 309.719 125.57 308.381C127.366 307.399 131.679 305.437 133.026 304.991ZM177.136 297.408C178.753 295 182.077 294.375 184.502 295.981C186.928 297.587 187.018 301.512 185.58 303.742C183.694 306.775 180.549 313.109 179.471 316.498C178.932 318.015 178.573 321.315 176.237 322.207C173.542 323.278 170.398 321.761 169.23 318.996C168.601 317.658 168.781 316.141 168.961 315.249C169.5 313.019 171.206 308.47 172.105 306.597C173.901 302.85 176.147 299.014 177.136 297.498V297.408ZM208.938 296.606C211.094 294.732 214.507 295.089 216.214 296.873C217.562 298.211 220.077 301.155 221.604 302.493C223.671 304.277 225.018 306.864 223.76 309.451C222.503 311.949 219.448 312.93 216.933 311.949C215.316 311.324 213.16 309.451 211.543 307.756C210.195 306.418 208.488 304.01 208.399 304.01C206.602 301.869 206.871 298.657 209.027 296.784L208.938 296.606ZM132.487 264.403C134.643 262.619 138.237 263.332 139.764 264.849C143.627 268.774 145.064 271.807 148.388 275.107C151.622 278.319 154.677 281.53 157.821 283.046C160.426 284.385 161.504 287.507 160.157 290.094C158.809 292.681 155.665 293.751 153.06 292.413C148.208 290.004 145.154 286.971 140.932 282.69C137.428 279.211 134.553 276.356 131.679 271.45C129.972 268.684 130.331 266.098 132.577 264.224L132.487 264.403ZM211.273 260.388C213.699 258.872 215.046 258.961 216.663 259.496C217.831 259.853 219.359 261.459 219.628 263.511C219.898 265.205 219.269 266.544 218.64 267.346C217.202 268.952 214.418 271.361 212.531 272.431C210.465 273.591 206.512 275.821 204.266 276.535C202.02 277.248 195.462 279.389 191.06 279.924C189.623 280.103 182.077 281.53 180.19 277.873C178.393 274.394 180.28 271.985 182.166 270.915C184.502 269.577 188.365 269.13 191.15 268.774C194.294 268.328 198.157 267.168 199.954 266.544C201.751 265.919 205.075 263.957 206.602 263.154C208.039 262.351 210.016 261.191 211.363 260.388H211.273ZM165.187 117.796C173.452 115.923 183.514 115.031 193.396 115.566C203.907 116.101 214.867 118.242 223.491 122.791L225.018 123.594C228.522 125.378 232.205 126.895 236.068 128.501C240.38 130.285 244.872 132.069 249.184 134.12L250.262 134.656C261.042 140.097 267.6 149.196 273.979 157.135C280.896 165.699 281.345 177.742 277.842 187.554C274.518 197.099 266.882 205.663 256.101 208.161C252.867 208.963 247.567 210.48 243.345 212.353C239.572 214.048 232.924 216.367 229.33 217.349C227.713 217.795 225.378 218.687 222.233 220.292C219.179 221.898 215.855 223.771 212.261 225.823C208.758 227.786 205.075 229.748 201.571 231.265C198.337 232.603 194.833 233.852 191.42 233.941C187.736 234.03 181.538 234.119 176.776 234.298C172.554 234.476 165.726 234.744 162.043 234.744C158.36 234.744 155.036 234.298 151.802 233.852C149.197 233.495 146.951 233.049 144.795 232.781L142.549 232.513C141.561 232.424 140.393 232.335 139.135 232.157C137.877 232.067 130.062 230.908 127.097 230.016C119.82 227.875 110.028 222.79 100.416 215.654C91.1626 208.785 84.335 200.4 81.9095 185.681C81.3705 182.648 81.5501 176.314 81.7298 173.281C81.9993 169.178 83.1672 162.666 86.1318 157.403C87.12 155.619 89.3659 152.229 90.7134 150.623C91.7914 149.374 94.3967 146.431 94.3967 146.431C96.6426 143.755 98.9783 141.881 101.045 140.365C103.38 138.759 104.818 137.956 106.525 136.529C111.376 132.604 117.664 131.177 122.425 130.195L123.234 130.017C125.121 129.482 127.366 128.59 130.421 127.43C133.385 126.27 137.338 124.843 141.111 124.843H141.65C144.435 124.843 147.58 123.862 151.263 122.435C154.856 121.097 159.438 119.134 163.481 118.153L165.098 117.796H165.187ZM192.857 126.092C183.783 125.646 174.71 126.092 167.613 128.055C164.379 128.947 159.528 130.731 155.036 132.426C151.173 133.853 146.591 135.013 142.01 135.459C140.033 135.637 137.608 136.083 134.374 137.332C131.858 138.313 127.187 140.008 124.671 140.632C120 141.881 115.957 142.773 113.262 144.825C111.196 146.431 108.77 147.947 107.243 149.018C105.536 150.177 104.099 151.426 102.662 153.121C100.955 155.173 97.2714 159.009 96.0137 161.328C94.3967 164.361 92.7796 171.23 92.2406 174.709C92.0609 175.868 92.0609 177.652 92.2406 179.258C92.3304 180.864 92.5999 186.038 92.5999 186.038C92.7796 193.888 98.4393 201.024 106.884 207.268C115.328 213.513 125.121 218.241 130.601 220.025C132.038 220.471 134.284 221.006 136.44 221.274C137.608 221.452 142.908 221.898 145.064 222.166C147.849 222.523 151.263 223.236 153.419 223.415C159.168 223.95 172.105 223.95 176.327 223.771C181.178 223.593 186.119 223.771 190.88 223.415C192.587 223.236 194.743 222.701 197.439 221.63C200.403 220.382 203.637 218.597 207.141 216.724C210.465 214.851 214.148 212.799 217.382 211.104C220.616 209.409 224.12 207.893 227.264 207.179L227.983 207.001C231.666 206.109 235.08 204.592 239.122 202.808C243.255 201.024 248.016 198.972 253.406 198.08H254.035C260.234 196.742 265.444 191.39 267.96 184.164C270.565 176.671 269.846 168.732 265.804 163.826C258.796 155.173 253.945 148.036 245.591 144.111C242.267 142.595 236.607 140.186 232.115 138.313C228.252 136.707 224.299 135.012 220.347 133.05L218.73 132.247C211.992 128.679 202.739 126.716 193.037 126.181L192.857 126.092ZM188.455 0.212801C190.791 -0.054814 193.037 -0.144019 195.372 0.39121C197.888 1.01564 201.122 2.88895 202.919 3.95941C204.805 5.20827 205.793 6.90317 206.781 7.88442C208.039 9.13329 210.914 10.8282 212.621 11.8094C213.878 12.5231 217.382 15.0208 217.382 15.0208C219.269 16.4481 221.065 18.3214 222.323 19.7487C223.94 21.5328 224.839 22.4248 225.827 23.1385C227.444 24.2981 231.037 26.3498 232.744 27.3311C235.259 28.6692 240.111 31.4345 242.626 32.951C244.153 33.843 247.298 35.8055 248.825 36.6976C251.43 38.2141 253.586 39.7306 255.562 41.4254C257.179 42.6743 264.456 48.651 264.456 48.651C268.589 51.7732 277.572 58.8204 277.572 58.8204C278.83 59.8909 279.908 60.6045 281.345 61.7642C282.962 63.013 287.813 66.938 289.7 68.9006C291.137 70.3278 294.282 74.1637 294.911 75.0557C296.617 77.2858 299.582 82.1029 297.336 86.6523C295.09 91.2018 290.778 91.291 288.173 91.291C284.4 91.291 277.572 91.291 273.17 91.2018C265.265 91.2018 254.844 90.4881 248.735 90.4881C239.033 90.4881 219.718 92.0938 210.016 92.4506C206.332 92.5398 199.774 92.6291 195.193 92.183C189.892 91.6478 173.812 89.0609 166.535 88.8825C162.223 88.8825 153.509 89.9529 149.197 90.2205C143.896 90.5773 133.385 90.3989 128.085 90.6665C123.324 90.9342 113.801 91.9154 108.95 91.8262C105.446 91.8262 98.619 90.7557 95.1154 90.5773C91.3423 90.3989 87.3895 90.5773 80.1128 90.5773C72.836 90.5773 68.7934 91.3802 65.1101 90.5773C62.0557 89.9529 58.1029 86.6523 57.6538 84.2438C56.9351 80.4972 58.0131 78.3563 61.2472 75.2341C64.2118 72.3795 70.68 67.2057 73.5547 64.5295C76.4295 61.8534 81.3705 56.1443 84.2452 53.6465C84.9639 53.0221 91.1626 48.205 93.5882 46.5993C95.6544 45.3505 100.685 42.5851 103.021 41.247C105.536 39.7306 116.676 32.3266 120 30.2748C123.324 28.2231 128.624 23.4061 131.499 21.1759C135.991 17.697 147.4 9.84693 150.275 8.06283C151.263 7.4384 156.294 4.31622 158.09 3.42418C158.809 3.06736 160.426 2.0861 161.055 1.81849C161.684 1.55087 162.852 1.19405 163.481 1.01564C168.242 -0.144019 172.015 2.71054 173.722 3.95941C174.8 4.76225 175.159 5.47589 175.788 5.47589C176.686 5.47589 177.675 4.49463 178.842 3.781C180.729 2.71054 183.963 0.74803 187.287 0.302005L188.275 0.123596L188.455 0.212801ZM157.102 47.4022C152.88 49.4539 144.884 52.0408 139.315 53.3789L133.296 54.8062C125.21 56.6795 120.18 56.1443 115.957 54.9846C111.915 53.9141 109.669 53.2005 107.423 53.1113C105.087 52.9329 102.572 53.8249 101.134 54.6278C98.7986 55.8766 93.4983 60.0693 92.5999 60.7829C91.8813 61.3181 89.6354 63.1022 88.737 63.9943C86.7606 65.9568 83.0773 70.1494 81.1009 72.1119C80.3823 72.8256 76.699 75.8585 74.0937 77.9995C73.1954 78.7131 73.7344 80.1404 74.9023 80.1404C76.6092 80.1404 89.9947 79.7835 95.0255 80.0512C98.5291 80.2296 106.974 81.3 108.86 81.3C112.274 81.3 123.144 80.3188 127.905 80.1404C133.206 79.962 143.806 80.1404 149.017 79.6944C150.454 79.6052 153.149 79.0699 154.587 78.8915C159.438 78.4455 169.32 78.0887 174.261 78.4455C176.417 78.6239 180.729 79.6051 182.885 79.962C186.029 80.408 192.498 81.3 195.642 81.5676C200.583 81.9245 205.883 81.9245 209.297 81.8353C216.484 81.6568 230.947 81.3 238.134 80.5864C240.739 80.3188 245.86 79.6051 248.376 79.5159C253.945 79.4267 262.12 80.3188 270.655 80.408C274.877 80.408 284.31 82.9057 285.298 80.0512C286.107 77.821 273.979 69.3466 269.846 66.046C265.444 62.567 253.855 54.0033 248.106 50.6136C245.95 49.3647 241.278 47.313 238.853 47.1346C235.439 46.867 228.791 49.4539 225.467 49.3647C223.311 49.3647 218.909 47.759 216.843 48.3834C215.406 48.8295 213.25 51.5056 212.172 52.2192C210.195 53.6465 207.5 55.609 203.997 55.3414C201.301 55.163 196.091 53.6465 193.845 51.7732C192.767 50.8812 188.814 46.8669 188.814 46.8669C188.185 46.3317 187.467 45.8857 185.76 45.3505C184.322 44.9044 181.538 44.5476 179.292 42.8527C177.854 41.7823 175.069 38.6601 173.273 38.5709C168.691 38.3033 161.235 45.2613 157.012 47.2238L157.102 47.4022ZM192.767 10.6498C191.779 10.4714 189.802 10.5606 188.904 10.739C187.646 11.0066 182.077 14.218 180.909 14.7532C179.921 15.1992 177.495 15.9129 176.327 16.0913C173.812 16.5373 171.835 15.2884 170.667 14.5748C169.5 13.8611 167.793 11.2742 165.098 11.2742C163.031 11.2742 157.462 15.9129 155.036 17.6077C152.88 19.1242 147.939 21.8896 146.052 23.2277C144.435 24.3873 141.65 26.3498 139.764 28.0447C138.147 29.472 135.272 32.3266 133.475 33.9322C131.858 35.3595 128.355 38.0357 126.378 38.9277C123.953 40.0874 117.754 42.3175 117.215 44.28C116.856 45.5289 120.359 46.1533 126.288 45.7073C132.218 45.2613 144.166 41.6039 149.736 39.1953C154.407 37.1436 165.098 30.6317 167.882 29.5612C169.769 28.7584 173.542 27.5095 176.058 28.4015C177.495 28.8476 179.921 30.6317 181.178 31.3453C183.065 32.4158 187.197 34.8243 189.084 35.3595C191.06 35.984 193.845 36.9652 196.36 39.3737C197.978 40.8902 201.122 44.8152 203.368 44.9044C205.614 44.9936 208.848 41.0686 210.734 39.909C212.531 38.8385 216.214 37.6788 218.819 37.8573C220.706 38.0357 223.042 38.9277 224.479 39.0169C225.917 39.1061 229.779 39.0169 229.869 37.5896C230.049 34.7351 222.143 33.4862 219.808 31.8805C218.28 30.8101 215.855 28.4015 214.507 26.8851C213.16 25.3686 204.895 20.4623 202.02 17.9646C200.673 16.8049 198.517 14.0396 197.169 12.8799C196.271 12.077 194.025 10.9174 192.857 10.6498H192.767Z" fill="black"/>
<path d="M348.002 407.434C355.834 407.434 361.056 412.656 361.056 421.141C361.056 429.625 355.834 434.847 348.002 434.847C340.17 434.847 334.948 429.625 334.948 421.141C334.948 412.656 340.17 407.434 348.002 407.434ZM348.002 412.661C344.086 412.661 342.78 416.461 342.78 421.146C342.78 425.832 344.086 429.632 348.002 429.632C351.918 429.632 353.224 425.833 353.224 421.146C353.224 416.46 351.918 412.661 348.002 412.661Z" fill="black"/>
<path d="M319.679 414.508C317.062 414.508 315.235 415.009 314.198 416.012V427.97H320.203V434.19H304.278V428.403H306.906V413.87H304.538V407.496L313.535 407.496V410.862C314.334 409.91 315.362 409.128 316.62 408.516C317.674 408.023 318.727 407.735 319.781 407.65C320.835 407.565 321.625 407.641 322.152 407.879L321.999 414.661C321.32 414.559 320.546 414.508 319.679 414.508Z" fill="black"/>
<path d="M278.819 407.434C286.651 407.434 291.872 412.656 291.872 421.141C291.872 429.625 286.651 434.847 278.819 434.847C270.987 434.847 265.765 429.625 265.765 421.141C265.765 412.656 270.987 407.434 278.819 407.434ZM278.819 412.661C274.903 412.661 273.597 416.46 273.597 421.146C273.597 425.832 274.903 429.632 278.819 429.632C282.735 429.632 284.04 425.833 284.04 421.146C284.04 416.46 282.735 412.661 278.819 412.661Z" fill="black"/>
<path d="M239.872 439.723C242.965 439.723 244.512 437.862 244.512 434.139V431.845C242.812 432.881 240.671 433.4 238.087 433.4C234.824 433.4 232.308 432.448 230.54 430.544C228.79 428.624 227.914 425.437 227.914 420.984C227.914 412.111 233.074 407.538 240.127 407.675C242.463 407.72 244.056 408.372 245.892 409.273V407.968H251.829V433.782C251.829 437.607 250.877 440.437 248.974 442.272C247.087 444.125 244.155 445.051 240.178 445.051C238.784 445.051 237.339 444.941 235.843 444.72C234.365 444.499 232.988 444.193 231.713 443.802C230.438 443.411 229.687 442.978 228.922 442.502V436.163H235.188V438.932C236.497 439.459 238.189 439.723 239.872 439.723ZM235.13 420.678C235.13 423.261 235.487 425.08 236.2 426.134C236.693 426.848 237.424 427.315 238.393 427.536C239.362 427.757 240.399 427.757 241.504 427.536C242.625 427.298 243.628 426.873 244.512 426.261V413.87C243.135 413.292 241.623 413.003 239.974 413.003C236.744 413.003 235.13 415.562 235.13 420.678Z" fill="black"/>
<path d="M186.795 413.858V407.434L195.783 407.434V410.162C196.649 409.431 197.805 408.836 199.25 408.377C200.695 407.901 202.08 407.663 203.406 407.663C205.683 407.663 207.494 408.011 208.836 408.708C210.179 409.388 211.148 410.51 211.743 412.074C212.338 413.638 212.635 415.728 212.635 418.346V428.391H215.252V434.178H202.72V428.391H205.343V418.04C205.343 416.153 205.038 414.895 204.426 414.266C203.95 413.756 203.261 413.451 202.36 413.349C201.46 413.23 200.482 413.306 199.428 413.578C198.375 413.85 197.38 414.309 196.445 414.955V428.391H199.326V434.178H186.795V428.391H189.154V413.858H186.795Z" fill="black"/>
<path d="M161.351 407.434C169.183 407.434 174.404 412.656 174.404 421.141C174.404 429.625 169.183 434.847 161.351 434.847C153.519 434.847 148.297 429.625 148.297 421.141C148.297 412.656 153.519 407.434 161.351 407.434ZM161.351 412.661C157.435 412.661 156.129 416.46 156.129 421.146C156.129 425.833 157.435 429.632 161.351 429.632C165.267 429.632 166.572 425.833 166.572 421.146C166.572 416.46 165.267 412.661 161.351 412.661Z" fill="black"/>
<path d="M133.131 414.508C130.513 414.508 128.686 415.009 127.649 416.012V427.97H133.654V434.19H117.729V428.403H120.358V413.87H117.99V407.496L126.986 407.496V410.862C127.785 409.91 128.814 409.128 130.071 408.516C131.125 408.023 132.179 407.735 133.233 407.65C134.287 407.565 135.077 407.641 135.604 407.879L135.451 414.661C134.771 414.559 133.998 414.508 133.131 414.508Z" fill="black"/>
<path d="M92.152 407.434C99.9842 407.434 105.206 412.656 105.206 421.141C105.206 429.625 99.9841 434.847 92.152 434.847C84.3198 434.847 79.0984 429.625 79.0983 421.141C79.0983 412.656 84.3197 407.434 92.152 407.434ZM92.152 412.661C88.2359 412.661 86.9303 416.46 86.9303 421.146C86.9303 425.833 88.2359 429.632 92.152 429.632C96.0681 429.632 97.3737 425.833 97.3737 421.146C97.3737 416.46 96.0681 412.661 92.152 412.661Z" fill="black"/>
<path d="M52.97 439.723C56.0635 439.723 57.6103 437.862 57.6103 434.139V431.845C55.9106 432.881 53.7689 433.4 51.1853 433.4C47.9219 433.4 45.4063 432.448 43.6386 430.544C41.8879 428.624 41.0125 425.437 41.0125 420.984C41.0125 412.111 46.1723 407.538 53.225 407.675C55.5609 407.72 57.1544 408.372 58.9901 409.273V407.968H64.9275V433.782C64.9275 437.607 63.9757 440.437 62.072 442.272C60.1853 444.125 57.2533 445.051 53.276 445.051C51.8822 445.051 50.4375 444.941 48.9417 444.72C47.463 444.499 46.0862 444.193 44.8114 443.802C43.5366 443.411 42.785 442.978 42.0201 442.502V436.163H48.286V438.932C49.5947 439.459 51.2873 439.723 52.97 439.723ZM48.2278 420.678C48.2278 423.261 48.5848 425.08 49.2987 426.134C49.7916 426.848 50.5225 427.315 51.4913 427.536C52.4601 427.757 53.497 427.757 54.6018 427.536C55.7236 427.298 56.7264 426.873 57.6103 426.261V413.87C56.2335 413.292 54.7208 413.003 53.072 413.003C49.8426 413.003 48.2278 415.562 48.2278 420.678Z" fill="black"/>
<path d="M0.000509907 413.89L0.000509907 407.465L8.98776 407.465V410.193C9.85461 409.462 11.0104 408.867 12.4552 408.408C13.8999 407.932 15.2852 407.694 16.611 407.694C18.8886 407.694 20.6988 408.043 22.0416 408.74C23.3843 409.42 24.3532 410.541 24.9481 412.105C25.543 413.669 25.8404 415.759 25.8404 418.377L25.8404 428.422H28.4568V434.21H15.9251V428.422H18.5487L18.5487 418.071C18.5487 416.184 18.2427 414.927 17.6308 414.298C17.1549 413.788 16.4665 413.482 15.5657 413.38C14.6648 413.261 13.6875 413.337 12.6336 413.609C11.5798 413.881 10.5855 414.34 9.65065 414.986L9.65065 428.422H12.5317V434.21H0L0 428.422H2.35887L2.35887 413.89H0.000509907Z" fill="black"/>
</svg>
