<svg width="92" height="20" viewBox="0 0 92 20" fill="none" xmlns="http://www.w3.org/2000/svg">
<path d="M86.8203 6C88.7289 6.00019 90.001 7.27306 90.001 9.34082C90.0008 11.4084 88.7288 12.6805 86.8203 12.6807C84.9116 12.6807 83.6388 11.4085 83.6387 9.34082C83.6387 7.27291 84.9115 6 86.8203 6ZM86.8213 7.27441C85.8671 7.27452 85.5489 8.19996 85.5488 9.3418C85.5488 10.4838 85.867 11.41 86.8213 11.4102C87.7757 11.4102 88.0938 10.4839 88.0938 9.3418C88.0937 8.19989 87.7756 7.27441 86.8213 7.27441Z" fill="#333333"/>
<path d="M79.9137 7.72254C79.2758 7.72254 78.8305 7.84474 78.5778 8.08915V11.0034H80.0413V12.5195H76.1602V11.109H76.8007V7.5672H76.2236V6.01367L78.4162 6.01371V6.83399C78.6109 6.60201 78.8615 6.41146 79.1681 6.26233C79.4249 6.1422 79.6817 6.07178 79.9386 6.05107C80.1954 6.03035 80.388 6.04899 80.5164 6.10699L80.4792 7.75982C80.3135 7.73497 80.125 7.72254 79.9137 7.72254Z" fill="#333333"/>
<path d="M69.9531 6C71.862 6 73.1348 7.27291 73.1348 9.34082C73.1346 11.4085 71.8619 12.6807 69.9531 12.6807C68.0445 12.6806 66.7716 11.4085 66.7715 9.34082C66.7715 7.27296 68.0444 6.00006 69.9531 6ZM69.9512 7.27441C68.9969 7.27441 68.6788 8.19989 68.6787 9.3418C68.6787 10.4839 68.9968 11.4102 69.9512 11.4102C70.9054 11.41 71.2236 10.4838 71.2236 9.3418C71.2236 8.20001 70.9053 7.27461 69.9512 7.27441Z" fill="#333333"/>
<path d="M60.4611 13.8699C61.215 13.8699 61.592 13.4163 61.592 12.5091V11.9499C61.1777 12.2026 60.6558 12.3289 60.0261 12.3289C59.2308 12.3289 58.6177 12.0969 58.1869 11.633C57.7602 11.1649 57.5469 10.3882 57.5469 9.30286C57.5469 7.1405 58.8044 6.0259 60.5232 6.05932C61.0925 6.07039 61.4809 6.22925 61.9283 6.4488V6.13066L63.3753 6.13066V12.4221C63.3753 13.3542 63.1433 14.0439 62.6794 14.4913C62.2196 14.9428 61.505 15.1686 60.5356 15.1686C60.196 15.1686 59.8439 15.1416 59.4793 15.0878C59.1189 15.0339 58.7834 14.9594 58.4727 14.8641C58.162 14.7688 57.9788 14.6632 57.7924 14.5472V13.0024H59.3195V13.6773C59.6385 13.8057 60.051 13.8699 60.4611 13.8699ZM59.3053 9.22829C59.3053 9.85795 59.3923 10.3012 59.5663 10.558C59.6864 10.732 59.8646 10.8459 60.1007 10.8998C60.3368 10.9536 60.5895 10.9536 60.8588 10.8998C61.1322 10.8418 61.3766 10.7382 61.592 10.5891V7.56925C61.2564 7.4284 60.8878 7.35798 60.4859 7.35798C59.6989 7.35798 59.3053 7.98142 59.3053 9.22829Z" fill="#333333"/>
<path d="M47.5275 7.56584V6L49.7178 6V6.66486C49.9291 6.48674 50.2107 6.34175 50.5628 6.22991C50.915 6.11392 51.2526 6.05592 51.5757 6.05592C52.1308 6.05592 52.5719 6.14084 52.8992 6.31068C53.2264 6.47638 53.4626 6.74978 53.6075 7.13089C53.7525 7.51199 53.825 8.02151 53.825 8.65945V11.1076H54.4627V12.5181H51.4085V11.1076H52.0479V8.58489C52.0479 8.12507 51.9733 7.81853 51.8242 7.66526C51.7082 7.54099 51.5405 7.46643 51.3209 7.44157C51.1014 7.41257 50.8632 7.43121 50.6063 7.49749C50.3495 7.56377 50.1072 7.67562 49.8793 7.83303V11.1076H50.5815V12.5181H47.5273V11.1076H48.1022V7.56584H47.5275Z" fill="#333333"/>
<path d="M41.3242 6C43.2329 6.00014 44.5049 7.27302 44.5049 9.34082C44.5047 11.4084 43.2328 12.6805 41.3242 12.6807C39.4155 12.6807 38.1427 11.4085 38.1426 9.34082C38.1426 7.27291 39.4154 6 41.3242 6ZM41.3232 7.27441C40.3691 7.27458 40.0509 8.2 40.0508 9.3418C40.0508 10.4838 40.369 11.41 41.3232 11.4102C42.2777 11.4102 42.5957 10.4839 42.5957 9.3418C42.5956 8.19989 42.2776 7.27441 41.3232 7.27441Z" fill="#333333"/>
<path d="M34.4508 7.72254C33.8129 7.72254 33.3676 7.84474 33.1149 8.08915V11.0034H34.5784V12.5195H30.6973V11.109H31.3378V7.5672H30.7607V6.01367L32.9533 6.01371V6.83399C33.148 6.60201 33.3986 6.41146 33.7052 6.26233C33.962 6.1422 34.2188 6.07178 34.4757 6.05107C34.7325 6.03035 34.9251 6.04899 35.0535 6.10699L35.0163 7.75982C34.8506 7.73497 34.6621 7.72254 34.4508 7.72254Z" fill="#333333"/>
<path d="M24.46 6C26.3688 6 27.6416 7.27291 27.6416 9.34082C27.6415 11.4085 26.3687 12.6807 24.46 12.6807C22.5514 12.6805 21.2794 11.4084 21.2793 9.34082C21.2793 7.27301 22.5513 6.00012 24.46 6ZM24.46 7.27441C23.5056 7.27441 23.1876 8.19989 23.1875 9.3418C23.1875 10.4839 23.5055 11.4102 24.46 11.4102C25.4143 11.4101 25.7324 10.4838 25.7324 9.3418C25.7324 8.19995 25.4142 7.27451 24.46 7.27441Z" fill="#333333"/>
<path d="M14.9103 13.8699C15.6642 13.8699 16.0412 13.4163 16.0412 12.5091V11.9499C15.6269 12.2026 15.105 12.3289 14.4753 12.3289C13.68 12.3289 13.0669 12.0969 12.6361 11.633C12.2094 11.1649 11.9961 10.3882 11.9961 9.30286C11.9961 7.1405 13.2536 6.0259 14.9724 6.05932C15.5417 6.07039 15.9301 6.22925 16.3775 6.4488V6.13066L17.8245 6.13066V12.4221C17.8245 13.3542 17.5925 14.0439 17.1286 14.4913C16.6688 14.9428 15.9542 15.1686 14.9849 15.1686C14.6452 15.1686 14.2931 15.1416 13.9285 15.0878C13.5682 15.0339 13.2326 14.9594 12.9219 14.8641C12.6112 14.7688 12.4281 14.6632 12.2417 14.5472V13.0024H13.7687V13.6773C14.0877 13.8057 14.5002 13.8699 14.9103 13.8699ZM13.7546 9.22829C13.7546 9.85795 13.8416 10.3012 14.0155 10.558C14.1357 10.732 14.3138 10.8459 14.5499 10.8998C14.786 10.9536 15.0387 10.9536 15.308 10.8998C15.5814 10.8418 15.8258 10.7382 16.0412 10.5891V7.56925C15.7057 7.4284 15.337 7.35798 14.9352 7.35798C14.1481 7.35798 13.7546 7.98142 13.7546 9.22829Z" fill="#333333"/>
<path d="M2.00012 7.57268L2.00012 6.00684L4.19044 6.00684V6.6717C4.40171 6.49357 4.68339 6.34859 5.0355 6.23674C5.38761 6.12075 5.72522 6.06276 6.04833 6.06276C6.60342 6.06276 7.04459 6.14768 7.37184 6.31752C7.69909 6.48322 7.93521 6.75662 8.0802 7.13772C8.22518 7.51883 8.29768 8.02835 8.29768 8.66629V11.1145H8.93532V12.525H5.88118V11.1145H6.52057L6.52057 8.59172C6.52057 8.13191 6.446 7.82537 6.29687 7.6721C6.18089 7.54783 6.01312 7.47326 5.79357 7.44841C5.57402 7.41941 5.33583 7.43805 5.079 7.50433C4.82216 7.57061 4.57983 7.68245 4.352 7.83987L4.352 11.1145H5.05414V12.525H2L2 11.1145H2.57489L2.57489 7.57268H2.00012Z" fill="#333333"/>
</svg>
